<svg width="16" height="16" viewBox="0 0 16 16" fill="none" xmlns="http://www.w3.org/2000/svg">
<circle cx="8" cy="8" r="8" fill="white"/>
<path d="M8.50007 11.925C6.34008 11.925 4.6001 10.1502 4.6001 7.94701C4.6001 6.96782 4.96009 6.04982 5.59009 5.31543L6.04009 5.71323C5.50009 6.32522 5.20009 7.12082 5.20009 7.94701C5.20009 9.8136 6.67008 11.313 8.50007 11.313C8.98006 11.313 9.43006 11.2212 9.88006 11.007L10.1201 11.5578C9.61006 11.8026 9.07006 11.925 8.50007 11.925Z" fill="#838383"/>
<path d="M11.4101 10.6095L10.9601 10.2118C11.5001 9.59976 11.8001 8.80416 11.8001 7.97797C11.8001 6.11138 10.3301 4.612 8.50011 4.612C8.02012 4.612 7.57012 4.70379 7.12012 4.91799L6.88013 4.3672C7.39012 4.1224 7.93012 4 8.50011 4C10.6601 4 12.4001 5.77479 12.4001 7.97797C12.4001 8.92656 12.0401 9.87516 11.4101 10.6095Z" fill="#838383"/>
<path d="M6.39998 7.64085H5.79999V5.80487H4V5.19287H6.39998V7.64085Z" fill="#838383"/>
<path d="M13.0001 10.7009H10.6001V8.25293H11.2001V10.0889H13.0001V10.7009Z" fill="#838383"/>
</svg>
